
<svg width="321.57" height="258.17" xmlns="http://www.w3.org/2000/svg" data-name="Calque 1">
 <title>LPsymbole_R_CS</title>

 <g>
  <title>Layer 1</title>
  <rect class="cls-1" width="321.57" height="258.17" fill="none" id="svg_1"/>
  <path class="cls-2" d="m160.82,31.29c-73.42,14.44 -132.94,69.93 -132.94,123.94s59.52,86.09 132.94,71.65s132.94,-69.88 132.94,-123.93s-59.52,-86.1 -132.94,-71.66zm-2.62,188.79c-70.33,13.84 -126.57,-15.77 -126.57,-66.94s56.78,-103.14 126.52,-117.42c71.78,-14.72 129.52,16.83 127.21,68.76c-2.12,47.79 -61.75,102.73 -127.16,115.6z" fill="#fff" id="svg_2"/>
  <path class="cls-2" d="m168.62,165.14s5.25,0.14 9.08,-2.16c6.17,-3.7 14.28,-10.42 25.78,-26.58l-123.17,30.27l88.31,-1.53z" fill="#fff" id="svg_3"/>
  <path class="cls-2" d="m104.2,92.87c5.91,2.13 25.11,8.87 35.8,16.13l1,0.72l79.8,-1.25c0.14,-0.19 3.08,-5.36 4.81,-8.69c1.91,-3.66 2,-6.79 -0.13,-8.87c-2.35,-2.26 -6.15,-2.62 -13.83,-2.62l-107.02,0c-0.85,0 -3,-0.15 -3.38,1.61a1.9,1.9 0 0 0 0.47,1.63a6.44,6.44 0 0 0 2.48,1.34z" fill="#fff" id="svg_4"/>
  <path class="cls-2" d="m264.67,112.9c-1.77,0 -118.61,1.84 -120.42,1.91c-1,0 -1.26,0.26 -1.26,1.31c0,8.48 -11.27,16.62 -26.54,23.91c-16.11,7.68 -36.33,15.33 -46.85,19.2c-2.5,0.92 -7,2.51 -8.44,3.24c-1.15,0.59 -2,1.5 -1.59,2.55s1.54,1.59 5.53,0.53c1.79,-0.47 3.8,-1 6,-1.54c20.18,-5.25 57.15,-14.51 93.15,-23.5c37.28,-9.31 74,-17.36 101,-22.22c2.12,-0.38 3.86,-1.52 3.77,-3.13s-1.85,-2.33 -4.35,-2.26z" fill="#fff" id="svg_5"/>
 </g>
</svg>