<svg xmlns="http://www.w3.org/2000/svg" width="94" height="31" fill="none" viewBox="0 0 94 31">
    <g clip-path="url(#clip0)">
        <path fill="url(#paint0_linear)" d="M21.306 27.57c8.841-3.586 14.076-11.518 11.693-17.716-2.384-6.198-11.484-8.316-20.325-4.73C3.833 8.709-1.402 16.64.981 22.839c2.384 6.198 11.484 8.316 20.325 4.73z"/>
        <path fill="#003DA5" d="M17.964 20.956s.654.018 1.132-.276c.77-.474 1.782-1.335 3.215-3.405L6.953 21.151l11.01-.195zM9.93 11.699c.736.271 3.131 1.137 4.467 2.068l.125.092 9.952-.16c.018-.024.383-.686.6-1.113.239-.469.25-.87-.015-1.136-.293-.29-.767-.335-1.725-.335H9.983c-.107 0-.374-.02-.422.206-.006.037-.004.075.006.111.01.037.03.07.054.098.09.08.195.137.308.169zM29.943 14.265c-.22.007-14.793.235-15.019.244-.124 0-.157.033-.157.168 0 1.086-1.406 2.13-3.311 3.062-2.01.983-4.531 1.963-5.842 2.459-.313.118-.873.321-1.054.416-.144.075-.243.191-.199.327.045.136.193.204.691.068.224-.062.474-.128.749-.198 2.518-.673 7.128-1.858 11.618-3.01 4.65-1.193 9.23-2.224 12.597-2.845.264-.049.481-.196.47-.402-.011-.207-.23-.298-.543-.289z"/>
        <path fill="#706F6F" d="M62.781 16.023c0 1.641-1.258 2.977-3.373 2.977-2.116 0-3.372-1.336-3.372-2.977 0-1.642 1.258-2.98 3.372-2.98s3.373 1.337 3.373 2.98zm-3.373-1.937c-1.281 0-2.195.763-2.195 1.937 0 1.173.914 1.932 2.195 1.932 1.28 0 2.196-.762 2.196-1.935 0-1.174-.914-1.934-2.196-1.934zM75.132 13.156v5.32c-.004.055.003.11.022.162.02.052.049.1.087.138.038.04.084.07.135.089.05.02.105.027.159.022h4.555v-1.06h-3.828v-1.334h3.416v-1.061h-3.416v-1.215h3.721v-1.061h-4.851zM45.087 13.102h-1.153l-2.921 5.785h1.217l.522-1.064h3.497l.345.699c.168.344.325.366.763.366h.65l-2.92-5.786zm-1.825 3.683l1.24-2.521 1.24 2.521h-2.48zM37.706 13.156h-1.13v5.32c-.004.055.004.11.023.162.019.052.048.1.087.139.038.039.084.069.135.088.05.02.105.027.159.022h3.376l.535-1.06h-3.185v-4.671zM74.422 13.156h-5.395v1.061h2.112v4.67h1.13v-4.67h2.153v-1.061zM68.492 13.687c-.614-.394-1.609-.643-2.362-.643-1.423 0-2.533.765-2.533 1.831 0 2.007 3.843 1.263 3.843 2.454 0 .485-.705.693-1.305.693-.803-.006-1.586-.258-2.25-.723l-.577.884c.701.491 1.83.817 2.728.817 1.405 0 2.581-.672 2.581-1.798 0-2.038-3.83-1.403-3.83-2.508 0-.467.634-.673 1.32-.673.657.011 1.3.214 1.85.585l.535-.92zM51.385 17.176v1.711h-1.13v-5.731c.593-.015 1.395-.038 2.058-.038 1.293 0 2.152.187 2.665.713.154.166.274.362.352.576.078.215.112.444.1.673 0 1.656-1.258 2.106-3.053 2.106-.245 0-.702-.006-.992-.01zm0-1.061c.285 0 .644.01.891.01.725 0 1.39-.024 1.744-.388.08-.083.143-.183.184-.292.04-.11.059-.228.052-.345.003-.197-.065-.387-.192-.535-.353-.364-.868-.386-1.788-.386-.248 0-.605 0-.89.01v1.925z"/>
    </g>
    <defs>
        <linearGradient id="paint0_linear" x1="1.408" x2="25.564" y1="7.676" y2="25.15" gradientUnits="userSpaceOnUse">
            <stop offset=".433" stop-color="#FFEC00"/>
            <stop offset="1" stop-color="#F8B31B"/>
        </linearGradient>
        <clipPath id="clip0">
            <path fill="#fff" d="M0 0H80V34H0z"/>
        </clipPath>
    </defs>
</svg>
